<svg width="100%" viewBox="0 0 680 500" xmlns="http://www.w3.org/2000/svg" font-family="ui-sans-serif,system-ui,sans-serif">
<defs>
  <marker id="arrow" viewBox="0 0 10 10" refX="8" refY="5" markerWidth="6" markerHeight="6" orient="auto-start-reverse">
    <path d="M2 1L8 5L2 9" fill="none" stroke="context-stroke" stroke-width="1.5" stroke-linecap="round" stroke-linejoin="round"/>
  </marker>
</defs>
<rect x="40" y="20" width="200" height="44" rx="8" fill="#e1f5ee" stroke="#0f6e56" stroke-width="0.5"/>
<text x="140" y="42" text-anchor="middle" dominant-baseline="central" font-size="13" font-weight="600" fill="#085041">Discord bot ready</text>
<line x1="140" y1="64" x2="140" y2="94" stroke="#888780" stroke-width="1" fill="none" marker-end="url(#arrow)"/>
<rect x="40" y="94" width="200" height="52" rx="8" fill="#eeedfe" stroke="#534ab7" stroke-width="0.5"/>
<text x="140" y="112" text-anchor="middle" dominant-baseline="central" font-size="13" font-weight="600" fill="#3c3489">Queue startup sync</text>
<text x="140" y="130" text-anchor="middle" dominant-baseline="central" font-size="11" fill="#3c3489">for all active servers</text>
<line x1="140" y1="146" x2="140" y2="176" stroke="#888780" stroke-width="1" fill="none" marker-end="url(#arrow)"/>
<rect x="40" y="176" width="200" height="44" rx="8" fill="#eeedfe" stroke="#534ab7" stroke-width="0.5"/>
<text x="140" y="198" text-anchor="middle" dominant-baseline="central" font-size="13" font-weight="600" fill="#3c3489">Sync worker drains queue</text>
<line x1="140" y1="220" x2="140" y2="250" stroke="#888780" stroke-width="1" fill="none" marker-end="url(#arrow)"/>
<rect x="40" y="250" width="200" height="44" rx="8" fill="#f1efe8" stroke="#888780" stroke-width="0.5"/>
<text x="140" y="272" text-anchor="middle" dominant-baseline="central" font-size="13" font-weight="600" fill="#2c2c2a">Sync server metadata</text>
<line x1="140" y1="294" x2="140" y2="324" stroke="#888780" stroke-width="1" fill="none" marker-end="url(#arrow)"/>
<rect x="40" y="324" width="200" height="44" rx="8" fill="#f1efe8" stroke="#888780" stroke-width="0.5"/>
<text x="140" y="346" text-anchor="middle" dominant-baseline="central" font-size="13" font-weight="600" fill="#2c2c2a">Sync roles + permissions</text>
<line x1="140" y1="368" x2="140" y2="398" stroke="#888780" stroke-width="1" fill="none" marker-end="url(#arrow)"/>
<rect x="40" y="398" width="200" height="44" rx="8" fill="#f1efe8" stroke="#888780" stroke-width="0.5"/>
<text x="140" y="420" text-anchor="middle" dominant-baseline="central" font-size="13" font-weight="600" fill="#2c2c2a">Sync members</text>
<line x1="140" y1="442" x2="140" y2="464" stroke="#888780" stroke-width="1" fill="none" marker-end="url(#arrow)"/>
<rect x="40" y="464" width="200" height="24" rx="6" fill="#faeeda" stroke="#854f0b" stroke-width="0.5"/>
<text x="140" y="476" text-anchor="middle" dominant-baseline="central" font-size="13" font-weight="600" fill="#633806">Write sync log + changes</text>
<rect x="268" y="464" width="144" height="24" rx="6" fill="#faece7" stroke="#993c1d" stroke-width="0.5"/>
<text x="340" y="476" text-anchor="middle" dominant-baseline="central" font-size="13" font-weight="600" fill="#712b13">Invalidate caches</text>
<line x1="240" y1="476" x2="266" y2="476" stroke="#888780" stroke-width="1" fill="none" marker-end="url(#arrow)"/>
<rect x="440" y="20" width="200" height="44" rx="8" fill="#e6f1fb" stroke="#185fa5" stroke-width="0.5"/>
<text x="540" y="42" text-anchor="middle" dominant-baseline="central" font-size="13" font-weight="600" fill="#0c447c">Discord gateway event</text>
<line x1="540" y1="64" x2="540" y2="94" stroke="#888780" stroke-width="1" fill="none" marker-end="url(#arrow)"/>
<rect x="440" y="94" width="200" height="52" rx="8" fill="#f1efe8" stroke="#888780" stroke-width="0.5"/>
<text x="540" y="112" text-anchor="middle" dominant-baseline="central" font-size="13" font-weight="600" fill="#2c2c2a">Member join / leave</text>
<text x="540" y="130" text-anchor="middle" dominant-baseline="central" font-size="11" fill="#5f5e5a">Incremental member update</text>
<line x1="540" y1="146" x2="540" y2="176" stroke="#888780" stroke-width="1" fill="none" marker-end="url(#arrow)"/>
<rect x="440" y="176" width="200" height="52" rx="8" fill="#f1efe8" stroke="#888780" stroke-width="0.5"/>
<text x="540" y="194" text-anchor="middle" dominant-baseline="central" font-size="13" font-weight="600" fill="#2c2c2a">Role created / updated</text>
<text x="540" y="212" text-anchor="middle" dominant-baseline="central" font-size="11" fill="#5f5e5a">Incremental role update</text>
<line x1="540" y1="228" x2="540" y2="258" stroke="#888780" stroke-width="1" fill="none" marker-end="url(#arrow)"/>
<rect x="440" y="258" width="200" height="52" rx="8" fill="#f1efe8" stroke="#888780" stroke-width="0.5"/>
<text x="540" y="276" text-anchor="middle" dominant-baseline="central" font-size="13" font-weight="600" fill="#2c2c2a">Guild updated</text>
<text x="540" y="294" text-anchor="middle" dominant-baseline="central" font-size="11" fill="#5f5e5a">Guild metadata update</text>
<path d="M440 120 L416 120 L416 476 L414 476" fill="none" stroke="#b4b2a9" stroke-width="0.5" marker-end="url(#arrow)"/>
<path d="M440 202 L420 202 L420 476" fill="none" stroke="#b4b2a9" stroke-width="0.5"/>
<path d="M440 284 L424 284 L424 476" fill="none" stroke="#b4b2a9" stroke-width="0.5"/>
</svg>